<?xml version="1.0" encoding="utf-8"?>
<!-- Generator: Adobe Illustrator 23.0.1, SVG Export Plug-In . SVG Version: 6.00 Build 0)  -->
<svg version="1.2" baseProfile="tiny" id="Ebene_1" xmlns="http://www.w3.org/2000/svg" xmlns:xlink="http://www.w3.org/1999/xlink"
	 x="0px" y="0px" viewBox="0 0 49 24" xml:space="preserve">
<g>
	<path d="M1.9,10.5c-0.5-0.2-0.9-0.3-1.2-0.6l0.5-1c0.3,0.2,0.7,0.4,1.1,0.5c0.4,0.1,0.9,0.2,1.3,0.2c1.1,0,1.6-0.3,1.6-0.9
		c0-0.2-0.1-0.4-0.2-0.5C4.8,8.1,4.7,8,4.4,7.9C4.2,7.9,3.9,7.8,3.5,7.8c-0.6-0.1-1-0.2-1.4-0.3C1.8,7.3,1.5,7.2,1.2,6.9
		C1,6.6,0.9,6.2,0.9,5.8c0-0.6,0.3-1.1,0.8-1.5s1.2-0.6,2.1-0.6c0.5,0,0.9,0.1,1.4,0.2C5.6,4,5.9,4.1,6.2,4.3l-0.5,1
		c-0.6-0.4-1.2-0.5-2-0.5C3.2,4.8,2.8,4.8,2.5,5S2.1,5.4,2.1,5.7c0,0.2,0.1,0.4,0.2,0.5c0.2,0.1,0.3,0.2,0.6,0.3
		c0.2,0.1,0.6,0.1,1,0.2c0.6,0.1,1,0.2,1.3,0.3s0.6,0.3,0.9,0.6c0.2,0.3,0.4,0.6,0.4,1.1c0,0.6-0.3,1.1-0.8,1.5
		c-0.5,0.4-1.3,0.6-2.2,0.6C2.9,10.7,2.4,10.6,1.9,10.5z"/>
	<path d="M9.2,10.3C8.7,10,8.2,9.5,7.9,9C7.6,8.5,7.4,7.9,7.4,7.2c0-0.7,0.2-1.3,0.5-1.8c0.3-0.5,0.7-0.9,1.3-1.2
		c0.5-0.3,1.2-0.4,1.9-0.4c0.6,0,1.2,0.1,1.7,0.4c0.5,0.3,0.9,0.6,1.1,1.1l-0.9,0.6c-0.2-0.3-0.5-0.6-0.8-0.7
		c-0.3-0.2-0.7-0.2-1.1-0.2c-0.5,0-0.9,0.1-1.2,0.3C9.5,5.3,9.2,5.6,9,5.9C8.8,6.3,8.7,6.7,8.7,7.2c0,0.5,0.1,0.9,0.3,1.3
		c0.2,0.4,0.5,0.7,0.8,0.9c0.4,0.2,0.8,0.3,1.2,0.3c0.4,0,0.7-0.1,1.1-0.2c0.3-0.2,0.6-0.4,0.8-0.7l0.9,0.6
		c-0.3,0.5-0.6,0.8-1.1,1.1c-0.5,0.3-1,0.4-1.7,0.4C10.4,10.7,9.8,10.6,9.2,10.3z"/>
	<path d="M21.2,4.4C21.8,5,22,5.7,22,6.7v4h-1.2V6.8c0-0.7-0.2-1.2-0.5-1.5C20,5,19.5,4.8,18.9,4.8c-0.7,0-1.2,0.2-1.6,0.6
		c-0.4,0.4-0.6,1-0.6,1.7v3.5h-1.2V1h1.2v3.7c0.3-0.3,0.6-0.6,1-0.8c0.4-0.2,0.9-0.3,1.4-0.3C20,3.7,20.7,3.9,21.2,4.4z"/>
	<path d="M30.6,7.6H25c0.1,0.6,0.3,1.1,0.8,1.5s1,0.6,1.7,0.6c0.8,0,1.5-0.3,2-0.8l0.7,0.8c-0.3,0.4-0.7,0.6-1.2,0.8
		c-0.5,0.2-1,0.3-1.6,0.3c-0.7,0-1.4-0.1-1.9-0.4C25,10,24.6,9.6,24.3,9c-0.3-0.5-0.5-1.1-0.5-1.8c0-0.7,0.1-1.3,0.4-1.8
		c0.3-0.5,0.7-1,1.2-1.3c0.5-0.3,1.1-0.4,1.8-0.4c0.7,0,1.2,0.1,1.8,0.4c0.5,0.3,0.9,0.7,1.2,1.3c0.3,0.5,0.4,1.2,0.4,1.8
		C30.7,7.3,30.7,7.5,30.6,7.6z M25.8,5.3c-0.4,0.4-0.6,0.8-0.7,1.4h4.4c-0.1-0.6-0.3-1.1-0.7-1.4c-0.4-0.4-0.9-0.6-1.5-0.6
		C26.7,4.7,26.2,4.9,25.8,5.3z"/>
	<path d="M38.2,4.4C38.7,5,39,5.7,39,6.7v4h-1.2V6.8c0-0.7-0.2-1.2-0.5-1.5c-0.3-0.3-0.8-0.5-1.4-0.5c-0.7,0-1.2,0.2-1.6,0.6
		c-0.4,0.4-0.6,1-0.6,1.7v3.5h-1.2V3.8h1.2v1c0.3-0.4,0.6-0.6,1-0.8c0.4-0.2,0.9-0.3,1.5-0.3C37,3.7,37.7,3.9,38.2,4.4z"/>
	<path d="M44,7.4l-1.4,1.3v1.9h-1.2V1h1.2v6.2l3.8-3.4h1.5L45,6.6l3.2,4h-1.5L44,7.4z"/>
	<path d="M0.9,14.3h3.5c0.9,0,1.7,0.2,2.4,0.6c0.7,0.4,1.3,0.9,1.7,1.6c0.4,0.7,0.6,1.4,0.6,2.3c0,0.8-0.2,1.6-0.6,2.3
		c-0.4,0.7-0.9,1.2-1.7,1.6c-0.7,0.4-1.5,0.6-2.4,0.6H0.9V14.3z M4.4,22.6c0.8,0,1.5-0.2,2.2-0.5c0.6-0.3,1.1-0.8,1.4-1.4
		c0.3-0.6,0.5-1.2,0.5-2c0-0.7-0.2-1.4-0.5-2c-0.3-0.6-0.8-1-1.4-1.4c-0.6-0.3-1.3-0.5-2.2-0.5H1.6v7.7H4.4z"/>
	<path d="M17.4,22.6v0.6h-6.1v-8.8h5.9v0.6H12v3.5h4.7v0.6H12v3.6H17.4z"/>
	<path d="M20.2,22.9c-0.6-0.2-1-0.5-1.4-0.9l0.3-0.5c0.3,0.3,0.7,0.6,1.3,0.8c0.5,0.2,1.1,0.3,1.7,0.3c0.8,0,1.5-0.2,1.9-0.5
		c0.4-0.3,0.6-0.7,0.6-1.2c0-0.4-0.1-0.7-0.3-0.9s-0.5-0.4-0.8-0.5s-0.8-0.3-1.4-0.4c-0.6-0.2-1.2-0.3-1.6-0.5s-0.7-0.4-1-0.7
		c-0.3-0.3-0.4-0.7-0.4-1.3c0-0.4,0.1-0.8,0.3-1.2c0.2-0.4,0.6-0.6,1-0.9s1-0.3,1.7-0.3c0.5,0,1,0.1,1.4,0.2
		c0.5,0.1,0.9,0.3,1.2,0.6l-0.2,0.5c-0.4-0.2-0.7-0.4-1.2-0.6c-0.4-0.1-0.8-0.2-1.3-0.2c-0.8,0-1.4,0.2-1.9,0.5
		c-0.4,0.3-0.6,0.8-0.6,1.3c0,0.4,0.1,0.7,0.3,0.9c0.2,0.2,0.5,0.4,0.8,0.5c0.3,0.1,0.8,0.3,1.4,0.4c0.6,0.2,1.2,0.3,1.5,0.5
		c0.4,0.2,0.7,0.4,1,0.7c0.3,0.3,0.4,0.7,0.4,1.2c0,0.4-0.1,0.8-0.3,1.2c-0.2,0.4-0.6,0.6-1.1,0.8c-0.5,0.2-1.1,0.3-1.8,0.3
		C21.4,23.2,20.8,23.1,20.2,22.9z"/>
	<path d="M27.4,14.3h0.6v8.8h-0.6V14.3z"/>
	<path d="M37.5,18.8h0.6v3.3c-0.4,0.4-0.9,0.7-1.4,0.8c-0.6,0.2-1.1,0.3-1.7,0.3c-0.9,0-1.7-0.2-2.4-0.6c-0.7-0.4-1.3-0.9-1.7-1.6
		c-0.4-0.7-0.6-1.4-0.6-2.3c0-0.8,0.2-1.6,0.6-2.3c0.4-0.7,0.9-1.2,1.7-1.6c0.7-0.4,1.5-0.6,2.4-0.6c0.6,0,1.2,0.1,1.8,0.3
		c0.5,0.2,1,0.5,1.4,0.9l-0.4,0.4c-0.4-0.4-0.8-0.6-1.2-0.8c-0.5-0.2-1-0.2-1.5-0.2c-0.8,0-1.4,0.2-2,0.5s-1.1,0.8-1.4,1.4
		c-0.3,0.6-0.5,1.3-0.5,2c0,0.7,0.2,1.4,0.5,2c0.3,0.6,0.8,1.1,1.4,1.4c0.6,0.3,1.3,0.5,2,0.5c1,0,1.8-0.3,2.5-0.8V18.8z"/>
	<path d="M48.1,14.3v8.8h-0.5l-6-7.7v7.7h-0.6v-8.8h0.5l6,7.7v-7.7H48.1z"/>
</g>
</svg>
