<?xml version="1.0" encoding="utf-8"?>
<!-- Generator: Adobe Illustrator 23.0.1, SVG Export Plug-In . SVG Version: 6.00 Build 0)  -->
<svg version="1.0" id="Ebene_1" xmlns="http://www.w3.org/2000/svg" xmlns:xlink="http://www.w3.org/1999/xlink" x="0px" y="0px"
	 viewBox="0 0 421.4 55.2" style="enable-background:new 0 0 421.4 55.2;" xml:space="preserve">
<style type="text/css">
	.st0{fill:#FFFFFF;}
</style>
<g>
	<path class="st0" d="M6.4,42c-2.1-0.6-3.7-1.4-4.9-2.3l2.1-4c1.2,0.9,2.7,1.6,4.5,2.1c1.7,0.5,3.5,0.8,5.3,0.8
		c4.4,0,6.6-1.3,6.6-3.8c0-0.8-0.3-1.5-0.9-2s-1.3-0.8-2.2-1.1c-0.9-0.2-2.2-0.5-3.8-0.8c-2.2-0.3-4.1-0.8-5.5-1.2
		C6.2,29.2,5,28.5,4,27.4c-1-1.1-1.5-2.6-1.5-4.6c0-2.5,1-4.5,3.1-6.1c2.1-1.5,4.9-2.3,8.4-2.3c1.9,0,3.7,0.2,5.6,0.7
		s3.4,1.1,4.6,1.8l-2.1,4c-2.3-1.5-4.9-2.2-8-2.2c-2.1,0-3.8,0.3-4.9,1s-1.7,1.6-1.7,2.8c0,0.9,0.3,1.6,0.9,2.1
		c0.6,0.5,1.4,0.9,2.3,1.2c0.9,0.2,2.2,0.5,3.9,0.8c2.2,0.4,4,0.8,5.4,1.2c1.4,0.4,2.6,1.2,3.5,2.2c1,1,1.5,2.5,1.5,4.4
		c0,2.5-1.1,4.5-3.2,6s-5.1,2.2-8.8,2.2C10.6,42.9,8.5,42.6,6.4,42z"/>
	<path class="st0" d="M36,41.1c-2.2-1.2-4-2.9-5.2-5.1c-1.3-2.1-1.9-4.6-1.9-7.3s0.6-5.2,1.9-7.3s3-3.8,5.2-5s4.7-1.8,7.6-1.8
		c2.5,0,4.8,0.5,6.7,1.5c2,1,3.5,2.5,4.6,4.4L51.1,23c-0.9-1.3-2-2.3-3.3-3s-2.7-1-4.3-1c-1.8,0-3.5,0.4-4.9,1.2
		c-1.5,0.8-2.6,1.9-3.4,3.4c-0.8,1.5-1.2,3.2-1.2,5.1c0,2,0.4,3.7,1.2,5.2s2,2.6,3.4,3.4c1.5,0.8,3.1,1.2,4.9,1.2c1.6,0,3-0.3,4.3-1
		s2.4-1.7,3.3-3l3.8,2.4c-1.1,1.9-2.6,3.4-4.6,4.4s-4.2,1.5-6.7,1.5C40.8,42.9,38.2,42.3,36,41.1z"/>
	<path class="st0" d="M84.6,17.6c2.1,2,3.1,5,3.1,9v16h-5V27.2c0-2.7-0.6-4.7-1.9-6.1s-3.1-2-5.6-2c-2.7,0-4.9,0.8-6.4,2.4
		c-1.6,1.6-2.4,3.9-2.4,6.8v14.3h-5V3.7h5v15c1-1.3,2.4-2.4,4.1-3.1c1.7-0.7,3.6-1.1,5.7-1.1C79.7,14.5,82.5,15.5,84.6,17.6z"/>
	<path class="st0" d="M122.5,30.4H100c0.3,2.4,1.4,4.4,3.2,5.9c1.8,1.5,4.1,2.2,6.8,2.2c3.3,0,6-1.1,8-3.4l2.8,3.3
		c-1.3,1.5-2.8,2.6-4.7,3.4c-1.9,0.8-4,1.2-6.3,1.2c-2.9,0-5.5-0.6-7.8-1.8s-4-2.9-5.3-5.1c-1.2-2.2-1.9-4.6-1.9-7.3
		s0.6-5.1,1.8-7.3c1.2-2.2,2.9-3.9,5-5.1s4.5-1.8,7.2-1.8s5,0.6,7.1,1.8s3.7,2.9,4.9,5.1c1.2,2.2,1.8,4.6,1.8,7.4
		C122.6,29.2,122.5,29.7,122.5,30.4z M102.8,21c-1.6,1.5-2.6,3.4-2.9,5.8h17.8c-0.3-2.3-1.2-4.3-2.9-5.7c-1.6-1.5-3.6-2.2-6.1-2.2
		S104.4,19.5,102.8,21z"/>
	<path class="st0" d="M153.1,17.6c2.1,2,3.1,5,3.1,9v16h-5V27.2c0-2.7-0.6-4.7-1.9-6.1c-1.3-1.4-3.1-2-5.6-2c-2.7,0-4.9,0.8-6.4,2.4
		s-2.4,3.9-2.4,6.8v14.3h-5V14.8h4.8V19c1-1.4,2.4-2.5,4.1-3.3c1.7-0.8,3.7-1.2,5.9-1.2C148.2,14.5,151,15.5,153.1,17.6z"/>
	<path class="st0" d="M176.6,29.6l-5.8,5.3v7.6h-5V3.7h5v25L186,14.8h6.1l-11.7,11.5l12.8,16.3H187L176.6,29.6z"/>
	<path class="st0" d="M211.1,3.7h1v49.1h-1V3.7z"/>
	<path class="st0" d="M235.8,8.7h13.4c3.5,0,6.6,0.7,9.4,2.2c2.7,1.5,4.8,3.5,6.4,6c1.5,2.6,2.3,5.5,2.3,8.7s-0.8,6.2-2.3,8.7
		c-1.5,2.6-3.6,4.6-6.4,6c-2.7,1.5-5.8,2.2-9.4,2.2h-13.4L235.8,8.7L235.8,8.7z M249,40.4c3.1,0,5.9-0.6,8.3-1.9
		c2.4-1.2,4.2-3,5.5-5.2s1.9-4.8,1.9-7.6s-0.6-5.4-1.9-7.6s-3.1-4-5.5-5.2S252.2,11,249,11h-10.7v29.4C238.3,40.4,249,40.4,249,40.4
		z"/>
	<path class="st0" d="M299.2,40.4v2.2h-23.4V8.7h22.7v2.2h-20.2v13.4h18.1v2.2h-18.1v13.9H299.2z"/>
	<path class="st0" d="M310,41.5c-2.2-0.9-4-2-5.3-3.3l1.1-1.8c1.2,1.3,2.8,2.3,4.8,3.1s4.1,1.2,6.4,1.2c3.2,0,5.7-0.6,7.3-1.8
		c1.6-1.2,2.5-2.8,2.5-4.8c0-1.5-0.4-2.7-1.3-3.6s-2-1.6-3.2-2.1c-1.3-0.5-3-1-5.2-1.5c-2.5-0.6-4.5-1.2-6-1.8
		c-1.5-0.6-2.8-1.5-3.8-2.7s-1.6-2.8-1.6-4.9c0-1.6,0.4-3.2,1.3-4.5c0.9-1.4,2.2-2.5,4-3.3s4-1.2,6.7-1.2c1.9,0,3.7,0.3,5.5,0.8
		s3.4,1.3,4.7,2.2l-0.9,2c-1.4-0.9-2.8-1.6-4.5-2.1c-1.6-0.5-3.2-0.7-4.8-0.7c-3.1,0-5.5,0.6-7.1,1.9s-2.4,2.9-2.4,4.9
		c0,1.5,0.4,2.7,1.3,3.6s2,1.6,3.2,2.1c1.3,0.5,3,1,5.3,1.5c2.5,0.6,4.5,1.2,6,1.8c1.5,0.6,2.8,1.5,3.8,2.6c1,1.2,1.6,2.8,1.6,4.8
		c0,1.6-0.4,3.1-1.3,4.5s-2.3,2.4-4.1,3.2c-1.8,0.8-4.1,1.2-6.8,1.2C314.6,42.8,312.2,42.4,310,41.5z"/>
	<path class="st0" d="M337.7,8.7h2.5v33.9h-2.5V8.7z"/>
	<path class="st0" d="M376.1,25.8h2.4v12.7c-1.5,1.4-3.3,2.5-5.4,3.2s-4.3,1.1-6.7,1.1c-3.4,0-6.4-0.7-9.1-2.2s-4.8-3.5-6.3-6.1
		s-2.3-5.6-2.3-8.8s0.8-6.2,2.3-8.8s3.6-4.7,6.3-6.1c2.7-1.5,5.7-2.2,9.1-2.2c2.5,0,4.8,0.4,6.8,1.2c2.1,0.8,3.9,1.9,5.3,3.5
		l-1.5,1.6c-1.4-1.4-3-2.4-4.8-3.1c-1.8-0.6-3.7-0.9-5.8-0.9c-2.9,0-5.5,0.6-7.9,1.9c-2.3,1.3-4.2,3.1-5.5,5.3s-2,4.8-2,7.6
		s0.7,5.3,2,7.6s3.2,4.1,5.5,5.4c2.3,1.3,4.9,2,7.8,2c3.9,0,7.1-1,9.6-3.1V25.8H376.1z"/>
	<path class="st0" d="M416.9,8.7v33.9h-2l-23.1-29.4v29.4h-2.5V8.7h2.1l23,29.4V8.7H416.9z"/>
</g>
</svg>
