<?xml version="1.0" encoding="utf-8"?>
<!-- Generator: Adobe Illustrator 23.0.1, SVG Export Plug-In . SVG Version: 6.00 Build 0)  -->
<svg version="1.2" baseProfile="tiny" id="Ebene_1" xmlns="http://www.w3.org/2000/svg" xmlns:xlink="http://www.w3.org/1999/xlink"
	 x="0px" y="0px" viewBox="0 0 50 35" xml:space="preserve">
<g>
	<path fill="#2A2A2A" d="M17.9,2.8C15.9,2.3,14,2,12,2C8.4,2,5.6,2.7,3.7,4.1C1.9,5.5,0.9,7.4,0.9,9.6c0,1.7,0.5,3,1.5,4
		s2.3,1.8,3.8,2.3c1.5,0.5,3.6,1.1,6.2,1.8c2.9,0.7,5.3,1.4,7.2,2.1V3.5C19.1,3.2,18.5,3,17.9,2.8z"/>
	<path fill="#2A2A2A" d="M23.3,5.3V22c0.5,0.4,1,0.9,1.5,1.4c1.3,1.5,2,3.5,2,6.1c0,1.4-0.3,2.6-0.7,3.8h7.4c3,0,5.6-0.6,7.9-1.8
		c2.3-1.2,4-2.8,5.2-5c1.2-2.1,1.9-4.5,1.9-7.3s-0.6-5.2-1.9-7.3c-1.2-2.1-3-3.8-5.2-5c-2.3-1.2-4.9-1.8-7.9-1.8L23.3,5.3L23.3,5.3z
		"/>
</g>
</svg>
