<?xml version="1.0" encoding="utf-8"?>
<!-- Generator: Adobe Illustrator 23.0.1, SVG Export Plug-In . SVG Version: 6.00 Build 0)  -->
<svg version="1.0" id="Ebene_1" xmlns="http://www.w3.org/2000/svg" xmlns:xlink="http://www.w3.org/1999/xlink" x="0px" y="0px"
	 viewBox="0 0 310 206" enable-background="new 0 0 310 206" xml:space="preserve">
<g>
	<path fill="#2A2A2A" d="M109.9,7.6C97.1,3.8,84.5,2,72.2,2C48.6,2,30.8,6.5,18.9,15.6C6.9,24.8,0.9,36.5,0.9,50.9
		c0,10.8,3.3,19.4,9.8,26c6.5,6.5,14.8,11.6,24.6,15c9.9,3.5,23.2,7.3,39.9,11.4c18.9,4.7,34.2,9.3,46.2,13.8V11.5
		C117.7,10.1,113.9,8.7,109.9,7.6z"/>
	<path fill="#2A2A2A" d="M144.7,23.5v106.9c3.4,2.7,6.6,5.7,9.5,9c8.5,9.6,12.7,22.7,12.7,39.1c0,8.7-1.7,16.9-4.7,24.6h47.6
		c19.3,0,36.2-3.8,50.7-11.5c14.5-7.7,25.7-18.3,33.7-31.8c8-13.5,12-29.1,12-46.7s-4-33.2-12-46.7c-8-13.5-19.2-24.1-33.7-31.8
		C246.1,26.8,229.2,23,209.9,23h-65.1V23.5z"/>
</g>
<g>
	<path d="M6.8,164.7c-1.6-0.5-2.8-1-3.6-1.7l1.6-2.9c0.9,0.6,2,1.2,3.3,1.6c1.3,0.4,2.6,0.6,3.9,0.6c3.3,0,4.9-0.9,4.9-2.8
		c0-0.6-0.2-1.1-0.7-1.5c-0.4-0.4-1-0.6-1.6-0.8c-0.7-0.2-1.6-0.4-2.8-0.6c-1.7-0.3-3-0.6-4.1-0.9c-1-0.3-1.9-0.9-2.7-1.7
		c-0.8-0.8-1.1-1.9-1.1-3.4c0-1.9,0.8-3.4,2.3-4.5c1.6-1.1,3.6-1.7,6.2-1.7c1.4,0,2.7,0.2,4.1,0.5c1.4,0.3,2.5,0.8,3.4,1.4l-1.6,2.9
		c-1.7-1.1-3.7-1.6-5.9-1.6c-1.6,0-2.8,0.3-3.6,0.8s-1.2,1.2-1.2,2.1c0,0.7,0.2,1.2,0.7,1.6c0.5,0.4,1,0.7,1.7,0.9
		c0.7,0.2,1.6,0.4,2.9,0.6c1.7,0.3,3,0.6,4,0.9c1,0.3,1.9,0.9,2.6,1.6c0.7,0.8,1.1,1.9,1.1,3.3c0,1.9-0.8,3.3-2.4,4.4
		c-1.6,1.1-3.8,1.6-6.5,1.6C10,165.4,8.3,165.2,6.8,164.7z"/>
	<path d="M28.7,164c-1.6-0.9-2.9-2.2-3.9-3.7c-0.9-1.6-1.4-3.4-1.4-5.4c0-2,0.5-3.8,1.4-5.4c0.9-1.6,2.2-2.8,3.9-3.7
		c1.6-0.9,3.5-1.3,5.6-1.3c1.9,0,3.5,0.4,5,1.1c1.5,0.8,2.6,1.8,3.4,3.3l-2.8,1.8c-0.6-1-1.4-1.7-2.4-2.2c-1-0.5-2-0.7-3.2-0.7
		c-1.3,0-2.6,0.3-3.6,0.9c-1.1,0.6-1.9,1.4-2.5,2.5c-0.6,1.1-0.9,2.4-0.9,3.8c0,1.4,0.3,2.7,0.9,3.8c0.6,1.1,1.4,1.9,2.5,2.5
		c1.1,0.6,2.3,0.9,3.6,0.9c1.2,0,2.2-0.2,3.2-0.7c1-0.5,1.8-1.2,2.4-2.2l2.8,1.8c-0.8,1.4-1.9,2.5-3.4,3.3c-1.5,0.8-3.1,1.1-5,1.1
		C32.2,165.4,30.4,164.9,28.7,164z"/>
	<path d="M64.6,146.7c1.5,1.5,2.3,3.7,2.3,6.7v11.8h-3.7v-11.4c0-2-0.5-3.5-1.4-4.5c-1-1-2.3-1.5-4.1-1.5c-2,0-3.6,0.6-4.8,1.8
		c-1.2,1.2-1.7,2.9-1.7,5.1v10.6h-3.7v-28.8h3.7v11.1c0.8-1,1.8-1.7,3-2.3c1.3-0.5,2.7-0.8,4.2-0.8C61,144.4,63.1,145.2,64.6,146.7z
		"/>
	<path d="M92.7,156.1H76c0.2,1.8,1,3.3,2.4,4.4c1.4,1.1,3,1.6,5.1,1.6c2.5,0,4.4-0.8,5.9-2.5l2.1,2.4c-0.9,1.1-2.1,1.9-3.5,2.5
		c-1.4,0.6-2.9,0.9-4.6,0.9c-2.2,0-4.1-0.4-5.8-1.3c-1.7-0.9-3-2.1-3.9-3.7c-0.9-1.6-1.4-3.4-1.4-5.4c0-2,0.4-3.8,1.3-5.4
		c0.9-1.6,2.1-2.9,3.7-3.7c1.6-0.9,3.3-1.3,5.3-1.3c2,0,3.7,0.4,5.3,1.3c1.5,0.9,2.7,2.1,3.6,3.7c0.9,1.6,1.3,3.4,1.3,5.5
		C92.7,155.3,92.7,155.7,92.7,156.1z M78.1,149.2c-1.2,1.1-1.9,2.5-2.1,4.3h13.2c-0.2-1.7-0.9-3.1-2.1-4.2c-1.2-1.1-2.7-1.6-4.5-1.6
		C80.8,147.6,79.3,148.1,78.1,149.2z"/>
	<path d="M115.3,146.7c1.5,1.5,2.3,3.7,2.3,6.7v11.8h-3.7v-11.4c0-2-0.5-3.5-1.4-4.5c-1-1-2.3-1.5-4.1-1.5c-2,0-3.6,0.6-4.8,1.8
		c-1.2,1.2-1.7,2.9-1.7,5.1v10.6h-3.7v-20.6h3.6v3.1c0.7-1.1,1.8-1.9,3-2.4c1.3-0.6,2.7-0.9,4.4-0.9
		C111.7,144.4,113.8,145.2,115.3,146.7z"/>
	<path d="M132.7,155.6l-4.3,4v5.6h-3.7v-28.8h3.7v18.5l11.2-10.2h4.5l-8.7,8.5l9.5,12.1h-4.6L132.7,155.6z"/>
	<path d="M4,176.2h10.4c2.7,0,5.2,0.6,7.3,1.7c2.1,1.1,3.8,2.7,4.9,4.7c1.2,2,1.8,4.3,1.8,6.8c0,2.5-0.6,4.8-1.8,6.8
		c-1.2,2-2.8,3.6-4.9,4.7c-2.1,1.1-4.5,1.7-7.3,1.7H4V176.2z M14.3,200.7c2.4,0,4.6-0.5,6.4-1.4c1.9-1,3.3-2.3,4.3-4
		c1-1.7,1.5-3.7,1.5-5.9c0-2.2-0.5-4.2-1.5-5.9c-1-1.7-2.4-3.1-4.3-4c-1.9-1-4-1.4-6.4-1.4H6v22.9H14.3z"/>
	<path d="M53.3,200.7v1.7H35.1v-26.3h17.6v1.7H37v10.4h14v1.7H37v10.8H53.3z"/>
	<path d="M61.7,201.7c-1.7-0.7-3.1-1.5-4.1-2.6l0.9-1.4c0.9,1,2.2,1.8,3.7,2.4c1.6,0.6,3.2,0.9,4.9,0.9c2.5,0,4.4-0.5,5.7-1.4
		c1.3-1,1.9-2.2,1.9-3.7c0-1.2-0.3-2.1-1-2.8c-0.7-0.7-1.5-1.2-2.5-1.6c-1-0.4-2.4-0.8-4.1-1.2c-1.9-0.5-3.5-0.9-4.6-1.4
		c-1.2-0.5-2.2-1.1-3-2.1c-0.8-0.9-1.2-2.2-1.2-3.8c0-1.3,0.3-2.5,1-3.5c0.7-1.1,1.7-1.9,3.1-2.5c1.4-0.6,3.1-0.9,5.2-0.9
		c1.5,0,2.9,0.2,4.3,0.6c1.4,0.4,2.6,1,3.6,1.7l-0.7,1.5c-1.1-0.7-2.2-1.3-3.5-1.7c-1.3-0.4-2.5-0.6-3.7-0.6c-2.4,0-4.3,0.5-5.5,1.5
		c-1.3,1-1.9,2.2-1.9,3.8c0,1.2,0.3,2.1,1,2.8c0.7,0.7,1.5,1.2,2.5,1.6c1,0.4,2.4,0.8,4.1,1.2c1.9,0.5,3.5,0.9,4.6,1.4
		c1.2,0.5,2.1,1.1,3,2c0.8,0.9,1.2,2.2,1.2,3.7c0,1.3-0.3,2.4-1,3.5c-0.7,1.1-1.7,1.9-3.2,2.5c-1.4,0.6-3.2,0.9-5.3,0.9
		C65.2,202.7,63.4,202.3,61.7,201.7z"/>
	<path d="M83.2,176.2h1.9v26.3h-1.9V176.2z"/>
	<path d="M113,189.4h1.8v9.9c-1.2,1.1-2.6,1.9-4.2,2.5c-1.6,0.6-3.4,0.9-5.2,0.9c-2.6,0-5-0.6-7-1.7c-2.1-1.2-3.7-2.7-4.9-4.8
		c-1.2-2-1.8-4.3-1.8-6.8c0-2.5,0.6-4.8,1.8-6.8c1.2-2,2.8-3.6,4.9-4.8c2.1-1.2,4.5-1.7,7.1-1.7c1.9,0,3.7,0.3,5.3,0.9
		c1.6,0.6,3,1.5,4.2,2.7l-1.2,1.3c-1.1-1.1-2.3-1.9-3.7-2.4c-1.4-0.5-2.9-0.7-4.5-0.7c-2.3,0-4.3,0.5-6.1,1.5
		c-1.8,1-3.2,2.4-4.3,4.2c-1,1.8-1.5,3.7-1.5,5.9c0,2.2,0.5,4.1,1.6,5.9c1,1.8,2.5,3.2,4.3,4.2c1.8,1,3.8,1.5,6.1,1.5
		c3,0,5.5-0.8,7.5-2.4V189.4z"/>
	<path d="M144.7,176.2v26.3h-1.6l-17.9-22.9v22.9h-1.9v-26.3h1.6l17.9,22.9v-22.9H144.7z"/>
</g>
</svg>
